<?xml version="1.0" encoding="utf-8"?>
<!-- Generator: Adobe Illustrator 25.0.0, SVG Export Plug-In . SVG Version: 6.00 Build 0)  -->
<svg version="1.1" xmlns="http://www.w3.org/2000/svg" xmlns:xlink="http://www.w3.org/1999/xlink" x="0px" y="0px"
	 viewBox="0 0 504.7 594.1" style="enable-background:new 0 0 504.7 594.1;" xml:space="preserve">
<style type="text/css">
	.st0{fill:none;}
	.st1{fill-rule:evenodd;clip-rule:evenodd;fill:#FFFFFF;stroke:#FFFFFF;stroke-miterlimit:10;}
</style>
<g id="Capa_2">
</g>
<g id="Capa_1" xmlns:xodm="http://www.corel.com/coreldraw/odm/2003">
	<path class="st0" d=""/>
	<g>
		<path class="st1" d="M413.7,190.2c-1.1,18-63.8,7.8-100.8,20.1c-29.8,9.9-33.8,40.5-33.8,47.2
			C250.1,160.7,410.3,202.4,413.7,190.2c-34.7-52.3-94-86.7-161.4-86.7C185,103.6,125.7,138,91,190.2
			c3.4,12.3,163.5-29.5,134.6,67.3c0-6.7-4.1-37.3-33.8-47.2h0C154.8,198,92,208.2,91,190.2c-20.3,30.6-32.1,67.3-32.1,106.8
			c0,106.9,86.6,193.5,193.5,193.5s193.5-86.6,193.5-193.5C445.8,257.6,434,220.8,413.7,190.2z M252.3,168.7
			c9.2,0,16.6,7.4,16.6,16.6c0,9.2-7.4,16.6-16.6,16.6c-9.2,0-16.6-7.4-16.6-16.6C235.7,176.1,243.2,168.7,252.3,168.7z
			 M228.7,195.8c0-1.1,1.4-2.4,2.6-2.4c3.9,0,2.8,3.8,8.4,7.6c4.9,3.3,7.7,4.1,13.6,4.1c5.4,0,10.3-2.9,13.3-5.5
			c3.2-2.8,4-5.3,5.5-8.4c0.6-1.2,1.5-1.8,2.3-2h0.8c0.7,0.1,1.4,0.5,1.9,1.1c2.1,2.7-2.6,8.8-4.4,11.1c-8.9,11-25.3,12.6-37.1,3.8
			c-0.6-0.5-0.9-0.9-1.5-1.4c-0.8-0.7-0.6-0.4-1.3-1.3C231.9,201.3,228.7,198.4,228.7,195.8z M260.4,228.6c0.9,0,1.6,0.7,1.6,1.6v34
			c0,0.9-0.7,1.6-1.6,1.6h-16.2c-0.9,0-1.6-0.7-1.6-1.6v-34c0-0.9,0.7-1.6,1.6-1.6h2.6v-13.3c0-0.5,0.4-0.9,0.9-0.9h9.1
			c0.5,0,0.9,0.4,0.9,0.9v13.3H260.4z M105.4,205.5c41,14,97.2-9.1,98.6,24.5C178.6,208.4,105.4,239.1,105.4,205.5z M131.9,226.5
			c28.8,9.8,78.5-6.8,78.5,21.4C192.6,232.7,131.9,250.1,131.9,226.5z M327.8,425.4h-63v-18v-23.9c0-3.7-3-6.7-6.7-6.7h-11.5
			c-3.7,0-6.7,3-6.7,6.7v23.9v18h-63v-72.9l63-18.1v3.1v23.9c0,3.7,3,6.7,6.7,6.7h11.5c3.7,0,6.7-3,6.7-6.7v-23.9v-3.1l63,18.1
			V425.4z M327.8,302.7v35.9l-63-15.4l-12.4-3l-12.4,3l-63,15.4l0-35.9c0.6-48.1-4-45.6-16.9-54.7c11.4,0.1,22.7,0.2,34.1,0.3
			c29.3,0.2,28.9,13.9,27.8,54.4h0h6.9h11.1h2.7v-32.5c0-0.9,0.7-1.6,1.6-1.6h16.2c0.9,0,1.6,0.7,1.6,1.6v32.5h2.7h0.3h0.3h0.3h0.3
			h0.3h0.3h0.3h0.3h0.3h0.3h0.3h0.3h0.3h0.3h0.3h0.3h0.3h0.3h0.3h0.3h0.3h0.3h0.3h0.3h0.3h0.3h0.2h0.2h0.2h0.2h0.1h9.4
			c-1.1-40.6-1.5-54.2,27.8-54.4c11.4-0.1,22.7-0.2,34.1-0.3C331.8,257,327.2,254.5,327.8,302.7z M294.2,247.9
			c0-28.2,49.7-11.6,78.5-21.4C372.7,250.1,312.1,232.7,294.2,247.9z M300.6,230.1c1.4-33.6,57.6-10.5,98.6-24.5
			C399.2,239.1,326.1,208.4,300.6,230.1z"/>
		<path class="st1" d="M90.9,189.8c0,0.2,0,0.3,0,0.5c0,0,0,0,0-0.1C91,190,90.9,189.9,90.9,189.8z"/>
		<path class="st1" d="M413.7,189.8L413.7,189.8c0,0.1,0,0.3-0.1,0.4c0,0,0,0,0,0.1C413.7,190.1,413.7,189.9,413.7,189.8z"/>
	</g>
</g>
</svg>
