<?xml version="1.0" encoding="utf-8"?>
<!-- Generator: Adobe Illustrator 25.0.0, SVG Export Plug-In . SVG Version: 6.00 Build 0)  -->
<svg version="1.1" xmlns="http://www.w3.org/2000/svg" xmlns:xlink="http://www.w3.org/1999/xlink" x="0px" y="0px"
	 viewBox="0 0 504.7 594.1" style="enable-background:new 0 0 504.7 594.1;" xml:space="preserve">
<style type="text/css">
	.st0{fill:none;}
	.st1{fill-rule:evenodd;clip-rule:evenodd;fill:#0000F5;}
</style>
<g id="Capa_2">
</g>
<g id="Capa_1" xmlns:xodm="http://www.corel.com/coreldraw/odm/2003">
	<path class="st0" d=""/>
	<g>
		<path class="st1" d="M413.7,170.7c-1.1,18-63.8,7.8-100.8,20.1c-29.8,9.9-33.8,40.5-33.8,47.2
			C250.1,141.1,410.3,182.9,413.7,170.7C379,118.4,319.7,84,252.3,84C185,84,125.7,118.4,91,170.6c3.4,12.3,163.5-29.5,134.6,67.3
			c0-6.7-4.1-37.3-33.8-47.2h0c-37-12.3-99.7-2.1-100.8-20.1C70.7,201.3,58.8,238,58.8,277.5c0,106.9,86.6,193.5,193.5,193.5
			s193.5-86.6,193.5-193.5C445.8,238,434,201.3,413.7,170.7z M252.3,149.2c9.2,0,16.6,7.4,16.6,16.6c0,9.2-7.4,16.6-16.6,16.6
			c-9.2,0-16.6-7.4-16.6-16.6C235.7,156.6,243.2,149.2,252.3,149.2z M228.7,176.3c0-1.1,1.4-2.4,2.6-2.4c3.9,0,2.8,3.8,8.4,7.6
			c4.9,3.3,7.7,4.1,13.6,4.1c5.4,0,10.3-2.9,13.3-5.5c3.2-2.8,4-5.3,5.5-8.4c0.6-1.2,1.5-1.8,2.3-2h0.8c0.7,0.1,1.4,0.5,1.9,1.1
			c2.1,2.7-2.6,8.8-4.4,11.1c-8.9,11-25.3,12.6-37.1,3.8c-0.6-0.5-0.9-0.9-1.5-1.4c-0.8-0.7-0.6-0.4-1.3-1.3
			C231.9,181.8,228.7,178.9,228.7,176.3z M260.4,209.1c0.9,0,1.6,0.7,1.6,1.6v34c0,0.9-0.7,1.6-1.6,1.6h-16.2
			c-0.9,0-1.6-0.7-1.6-1.6v-34c0-0.9,0.7-1.6,1.6-1.6h2.6v-13.3c0-0.5,0.4-0.9,0.9-0.9h9.1c0.5,0,0.9,0.4,0.9,0.9v13.3H260.4z
			 M105.4,186c41,14,97.2-9.1,98.6,24.5C178.6,188.8,105.4,219.6,105.4,186z M131.9,207c28.8,9.8,78.5-6.8,78.5,21.4
			C192.6,213.2,131.9,230.5,131.9,207z M327.8,405.9h-63v-18V364c0-3.7-3-6.7-6.7-6.7h-11.5c-3.7,0-6.7,3-6.7,6.7v23.9v18h-63V333
			l63-18.1v3.1v23.9c0,3.7,3,6.7,6.7,6.7h11.5c3.7,0,6.7-3,6.7-6.7V318v-3.1l63,18.1V405.9z M327.8,283.1V319l-63-15.4l-12.4-3
			l-12.4,3l-63,15.4l0-35.9c0.6-48.1-4-45.6-16.9-54.7c11.4,0.1,22.7,0.2,34.1,0.3c29.3,0.2,28.9,13.9,27.8,54.4h0h6.9h11.1h2.7
			v-32.5c0-0.9,0.7-1.6,1.6-1.6h16.2c0.9,0,1.6,0.7,1.6,1.6v32.5h2.7h0.3h0.3h0.3h0.3h0.3h0.3h0.3h0.3h0.3h0.3h0.3h0.3h0.3h0.3h0.3
			h0.3h0.3h0.3h0.3h0.3h0.3h0.3h0.3h0.3h0.3h0.3h0.2h0.2h0.2h0.2h0.1h9.4c-1.1-40.6-1.5-54.2,27.8-54.4c11.4-0.1,22.7-0.2,34.1-0.3
			C331.8,237.5,327.2,235,327.8,283.1z M294.2,228.4c0-28.2,49.7-11.6,78.5-21.4C372.7,230.6,312.1,213.2,294.2,228.4z M300.6,210.5
			c1.4-33.6,57.6-10.5,98.6-24.5C399.2,219.6,326.1,188.8,300.6,210.5z"/>
		<path class="st1" d="M90.9,170.2c0,0.2,0,0.3,0,0.5c0,0,0,0,0-0.1C91,170.5,90.9,170.4,90.9,170.2z"/>
		<path class="st1" d="M413.7,170.2L413.7,170.2c0,0.1,0,0.3-0.1,0.4c0,0,0,0,0,0.1C413.7,170.5,413.7,170.4,413.7,170.2z"/>
	</g>
</g>
</svg>
